<?xml version="1.0"?>
<svg xmlns="http://www.w3.org/2000/svg" xmlns:xlink="http://www.w3.org/1999/xlink" viewBox="60.58 37.34 455 68.92" role="img" aria-label="Crimson Peak">
<path fill-rule="nonzero" fill="#B20D35" fill-opacity="1" d="M 79.59375 106.238281 C 67.816406 106.238281 60.59375 98.320312 60.59375 88.128906 L 60.59375 55.472656 C 60.59375 45.28125 67.816406 37.363281 79.59375 37.363281 C 91.269531 37.363281 97.40625 44.6875 97.40625 54.585938 L 97.40625 62.601562 L 86.421875 62.601562 L 86.421875 54.683594 C 86.421875 50.824219 84.242188 48.152344 79.792969 48.152344 C 75.339844 48.152344 73.0625 50.824219 73.0625 54.484375 L 73.0625 89.117188 C 73.0625 92.78125 75.339844 95.449219 79.792969 95.449219 C 84.242188 95.449219 86.421875 92.78125 86.421875 88.921875 L 86.421875 81.003906 L 97.40625 81.003906 L 97.40625 89.019531 C 97.40625 98.914062 91.269531 106.238281 79.59375 106.238281 "></path>
<path fill-rule="nonzero" fill="#B20D35" fill-opacity="1" d="M 125.699219 53.695312 C 125.699219 50.722656 124.414062 48.945312 121.347656 48.945312 L 114.617188 48.945312 L 114.617188 68.335938 L 120.851562 68.335938 C 124.019531 68.335938 125.699219 66.65625 125.699219 63.09375 Z M 126.097656 104.75 L 126.097656 83.082031 C 126.097656 80.015625 124.511719 77.441406 121.050781 77.441406 L 114.617188 77.441406 L 114.617188 104.753906 L 102.347656 104.753906 L 102.347656 38.851562 L 122.632812 38.851562 C 131.640625 38.851562 137.675781 43.996094 137.675781 53.199219 L 137.675781 62.5 C 137.675781 67.449219 135.398438 71.109375 130.253906 72.695312 C 135.398438 74.078125 137.871094 78.429688 137.871094 82.6875 L 137.871094 104.75 L 126.097656 104.75 "></path>
<path fill-rule="nonzero" fill="#B20D35" fill-opacity="1" d="M 147.761719 104.753906 L 147.761719 38.851562 L 160.03125 38.851562 L 160.03125 104.753906 L 147.761719 104.753906 "></path>
<path fill-rule="nonzero" fill="#B20D35" fill-opacity="1" d="M 207.824219 104.753906 L 207.824219 56.960938 L 205.152344 71.304688 L 198.128906 104.753906 L 188.824219 104.753906 L 182.195312 71.304688 L 179.625 56.960938 L 179.625 104.753906 L 168.640625 104.753906 L 168.640625 38.851562 L 185.164062 38.851562 L 191.992188 72.296875 L 194.070312 84.46875 L 196.246094 72.296875 L 202.976562 38.851562 L 219.402344 38.851562 L 219.402344 104.753906 L 207.824219 104.753906 "></path>
<path fill-rule="nonzero" fill="#B20D35" fill-opacity="1" d="M 244.332031 106.238281 C 233.054688 106.238281 226.027344 99.507812 226.027344 89.214844 L 226.027344 84.664062 L 237.308594 84.664062 L 237.308594 88.523438 C 237.308594 93.375 239.582031 96.042969 244.035156 96.042969 C 248.390625 96.042969 250.566406 93.472656 250.566406 89.414062 C 250.566406 84.171875 247.203125 80.609375 240.671875 75.757812 C 233.945312 70.910156 226.621094 64.378906 226.621094 55.175781 C 226.621094 45.679688 232.757812 37.464844 244.628906 37.464844 C 255.019531 37.464844 261.945312 44.589844 261.945312 54.386719 L 261.945312 58.640625 L 250.765625 58.640625 L 250.765625 54.683594 C 250.765625 50.628906 248.6875 47.65625 244.53125 47.65625 C 240.96875 47.65625 238.59375 49.933594 238.59375 53.59375 C 238.59375 59.136719 241.859375 62.003906 249.183594 67.347656 C 257 73.1875 262.539062 79.125 262.539062 88.03125 C 262.539062 98.617188 255.21875 106.238281 244.332031 106.238281 "></path>
<path fill-rule="nonzero" fill="#B20D35" fill-opacity="1" d="M 293.507812 54.585938 C 293.507812 50.722656 291.230469 48.152344 287.175781 48.152344 C 283.21875 48.152344 280.941406 50.722656 280.941406 54.585938 L 280.941406 89.019531 C 280.941406 92.878906 283.21875 95.449219 287.175781 95.449219 C 291.230469 95.449219 293.507812 92.878906 293.507812 89.019531 Z M 287.175781 106.238281 C 275.695312 106.238281 268.472656 98.714844 268.472656 88.226562 L 268.472656 55.375 C 268.472656 44.984375 275.695312 37.464844 287.175781 37.464844 C 298.75 37.464844 305.878906 44.984375 305.878906 55.375 L 305.878906 88.226562 C 305.878906 98.714844 298.75 106.238281 287.175781 106.238281 "></path>
<path fill-rule="nonzero" fill="#B20D35" fill-opacity="1" d="M 342.289062 104.753906 L 329.523438 76.652344 L 324.871094 66.160156 L 324.871094 104.753906 L 313.589844 104.753906 L 313.589844 38.851562 L 324.179688 38.851562 L 336.351562 67.449219 L 340.703125 77.9375 L 340.703125 38.851562 L 351.785156 38.851562 L 351.785156 104.753906 L 342.289062 104.753906 "></path>
<path fill-rule="nonzero" fill="#696466" fill-opacity="1" d="M 383.644531 53.890625 C 383.644531 50.628906 382.359375 48.945312 379.289062 48.945312 L 372.5625 48.945312 L 372.5625 70.019531 L 379.289062 70.019531 C 382.359375 70.019531 383.644531 68.335938 383.644531 65.074219 Z M 380.578125 79.519531 L 372.5625 79.519531 L 372.5625 104.753906 L 360.292969 104.753906 L 360.292969 38.851562 L 380.578125 38.851562 C 389.878906 38.851562 395.519531 44.195312 395.519531 53.695312 L 395.519531 64.777344 C 395.519531 74.175781 389.878906 79.519531 380.578125 79.519531 "></path>
<path fill-rule="nonzero" fill="#696466" fill-opacity="1" d="M 398.046875 104.753906 L 398.046875 38.851562 L 429.511719 38.851562 L 429.511719 49.441406 L 410.316406 49.441406 L 410.316406 65.765625 L 423.578125 65.765625 L 423.578125 75.464844 L 410.316406 75.464844 L 410.316406 93.769531 L 429.511719 93.769531 L 429.511719 104.753906 L 398.046875 104.753906 "></path>
<path fill-rule="nonzero" fill="#696466" fill-opacity="1" d="M 452.210938 56.660156 L 447.757812 82.09375 L 456.167969 82.09375 Z M 459.929688 104.753906 L 457.75 91.789062 L 446.074219 91.789062 L 443.699219 104.753906 L 432.222656 104.753906 L 445.480469 38.851562 L 459.238281 38.851562 L 472.398438 104.753906 L 459.929688 104.753906 "></path>
<path fill-rule="nonzero" fill="#696466" fill-opacity="1" d="M 502.675781 104.753906 L 493.570312 77.640625 L 489.316406 86.347656 L 489.316406 104.753906 L 477.042969 104.753906 L 477.042969 38.851562 L 489.316406 38.851562 L 489.316406 69.03125 L 502.574219 38.851562 L 514.945312 38.851562 L 501.980469 66.65625 L 515.535156 104.753906 L 502.675781 104.753906 "></path>
</svg>